{
	"asset":{
		"generator":"Khronos glTF Blender I/O v5.1.19",
		"version":"2.0"
	},
	"scene":0,
	"scenes":[
		{
			"name":"Scene",
			"nodes":[
				0,
				1,
				2,
				3,
				4
			]
		}
	],
	"nodes":[
		{
			"mesh":0,
			"name":"Floor",
			"scale":[
				10,
				1,
				6
			]
		},
		{
			"mesh":1,
			"name":"Front Wall",
			"scale":[
				10.25,
				1.75,
				0.125
			],
			"translation":[
				0,
				1.75,
				6.125
			]
		},
		{
			"mesh":2,
			"name":"Back Wall",
			"scale":[
				10.25,
				1.75,
				0.125
			],
			"translation":[
				0,
				1.75,
				-6.125
			]
		},
		{
			"mesh":3,
			"name":"Left Wall",
			"rotation":[
				0,
				0.7071068286895752,
				0,
				0.7071068286895752
			],
			"scale":[
				6.25,
				1.75,
				0.125
			],
			"translation":[
				-10.125,
				1.75,
				0
			]
		},
		{
			"mesh":4,
			"name":"Right Wall",
			"rotation":[
				0,
				0.7071068286895752,
				0,
				0.7071068286895752
			],
			"scale":[
				6.25,
				1.75,
				0.125
			],
			"translation":[
				10.125,
				1.75,
				0
			]
		}
	],
	"meshes":[
		{
			"name":"Floor",
			"primitives":[
				{
					"attributes":{
						"POSITION":0,
						"NORMAL":1,
						"TEXCOORD_0":2
					},
					"indices":3
				}
			]
		},
		{
			"name":"Front Wall",
			"primitives":[
				{
					"attributes":{
						"POSITION":4,
						"NORMAL":5,
						"TEXCOORD_0":6
					},
					"indices":7
				}
			]
		},
		{
			"name":"Back Wall",
			"primitives":[
				{
					"attributes":{
						"POSITION":8,
						"NORMAL":9,
						"TEXCOORD_0":10
					},
					"indices":11
				}
			]
		},
		{
			"name":"Left Wall",
			"primitives":[
				{
					"attributes":{
						"POSITION":12,
						"NORMAL":13,
						"TEXCOORD_0":14
					},
					"indices":15
				}
			]
		},
		{
			"name":"Right Wall",
			"primitives":[
				{
					"attributes":{
						"POSITION":16,
						"NORMAL":17,
						"TEXCOORD_0":18
					},
					"indices":15
				}
			]
		}
	],
	"accessors":[
		{
			"bufferView":0,
			"componentType":5126,
			"count":4,
			"max":[
				1,
				0,
				1
			],
			"min":[
				-1,
				0,
				-1
			],
			"type":"VEC3"
		},
		{
			"bufferView":1,
			"componentType":5126,
			"count":4,
			"type":"VEC3"
		},
		{
			"bufferView":2,
			"componentType":5126,
			"count":4,
			"type":"VEC2"
		},
		{
			"bufferView":3,
			"componentType":5123,
			"count":6,
			"type":"SCALAR"
		},
		{
			"bufferView":4,
			"componentType":5126,
			"count":48,
			"max":[
				0.9756097793579102,
				1,
				1
			],
			"min":[
				-0.9756097793579102,
				-1,
				-1
			],
			"type":"VEC3"
		},
		{
			"bufferView":5,
			"componentType":5126,
			"count":48,
			"type":"VEC3"
		},
		{
			"bufferView":6,
			"componentType":5126,
			"count":48,
			"type":"VEC2"
		},
		{
			"bufferView":7,
			"componentType":5123,
			"count":84,
			"type":"SCALAR"
		},
		{
			"bufferView":8,
			"componentType":5126,
			"count":24,
			"max":[
				0.9756097793579102,
				1,
				1
			],
			"min":[
				-0.9756097793579102,
				-1,
				-1
			],
			"type":"VEC3"
		},
		{
			"bufferView":9,
			"componentType":5126,
			"count":24,
			"type":"VEC3"
		},
		{
			"bufferView":10,
			"componentType":5126,
			"count":24,
			"type":"VEC2"
		},
		{
			"bufferView":11,
			"componentType":5123,
			"count":36,
			"type":"SCALAR"
		},
		{
			"bufferView":12,
			"componentType":5126,
			"count":24,
			"max":[
				1,
				1,
				1
			],
			"min":[
				-1,
				-1,
				-1
			],
			"type":"VEC3"
		},
		{
			"bufferView":13,
			"componentType":5126,
			"count":24,
			"type":"VEC3"
		},
		{
			"bufferView":14,
			"componentType":5126,
			"count":24,
			"type":"VEC2"
		},
		{
			"bufferView":15,
			"componentType":5123,
			"count":36,
			"type":"SCALAR"
		},
		{
			"bufferView":16,
			"componentType":5126,
			"count":24,
			"max":[
				1,
				1,
				1
			],
			"min":[
				-1,
				-1,
				-1
			],
			"type":"VEC3"
		},
		{
			"bufferView":17,
			"componentType":5126,
			"count":24,
			"type":"VEC3"
		},
		{
			"bufferView":18,
			"componentType":5126,
			"count":24,
			"type":"VEC2"
		}
	],
	"bufferViews":[
		{
			"buffer":0,
			"byteLength":48,
			"byteOffset":0,
			"target":34962
		},
		{
			"buffer":0,
			"byteLength":48,
			"byteOffset":48,
			"target":34962
		},
		{
			"buffer":0,
			"byteLength":32,
			"byteOffset":96,
			"target":34962
		},
		{
			"buffer":0,
			"byteLength":12,
			"byteOffset":128,
			"target":34963
		},
		{
			"buffer":0,
			"byteLength":576,
			"byteOffset":140,
			"target":34962
		},
		{
			"buffer":0,
			"byteLength":576,
			"byteOffset":716,
			"target":34962
		},
		{
			"buffer":0,
			"byteLength":384,
			"byteOffset":1292,
			"target":34962
		},
		{
			"buffer":0,
			"byteLength":168,
			"byteOffset":1676,
			"target":34963
		},
		{
			"buffer":0,
			"byteLength":288,
			"byteOffset":1844,
			"target":34962
		},
		{
			"buffer":0,
			"byteLength":288,
			"byteOffset":2132,
			"target":34962
		},
		{
			"buffer":0,
			"byteLength":192,
			"byteOffset":2420,
			"target":34962
		},
		{
			"buffer":0,
			"byteLength":72,
			"byteOffset":2612,
			"target":34963
		},
		{
			"buffer":0,
			"byteLength":288,
			"byteOffset":2684,
			"target":34962
		},
		{
			"buffer":0,
			"byteLength":288,
			"byteOffset":2972,
			"target":34962
		},
		{
			"buffer":0,
			"byteLength":192,
			"byteOffset":3260,
			"target":34962
		},
		{
			"buffer":0,
			"byteLength":72,
			"byteOffset":3452,
			"target":34963
		},
		{
			"buffer":0,
			"byteLength":288,
			"byteOffset":3524,
			"target":34962
		},
		{
			"buffer":0,
			"byteLength":288,
			"byteOffset":3812,
			"target":34962
		},
		{
			"buffer":0,
			"byteLength":192,
			"byteOffset":4100,
			"target":34962
		}
	],
	"buffers":[
		{
			"byteLength":4292,
			"uri":"Cafe.bin"
		}
	]
}
