{
	"asset":{
		"generator":"Khronos glTF Blender I/O v5.0.21",
		"version":"2.0"
	},
	"scene":0,
	"scenes":[
		{
			"name":"Scene",
			"nodes":[
				0,
				1
			]
		}
	],
	"nodes":[
		{
			"mesh":0,
			"name":"Icosphere.013",
			"translation":[
				5.300508975982666,
				-1.3285492658615112,
				-2.175243616104126
			]
		},
		{
			"mesh":1,
			"name":"Cube.008",
			"translation":[
				5.300508975982666,
				-1.3285492658615112,
				-2.175243616104126
			]
		}
	],
	"materials":[
		{
			"doubleSided":true,
			"name":"DarkerLeaf.003"
		},
		{
			"doubleSided":true,
			"name":"TreeBody.005"
		}
	],
	"meshes":[
		{
			"name":"Icosphere.019",
			"primitives":[
				{
					"attributes":{
						"POSITION":0,
						"NORMAL":1
					},
					"indices":2,
					"material":0
				}
			]
		},
		{
			"name":"Cube.014",
			"primitives":[
				{
					"attributes":{
						"POSITION":3,
						"NORMAL":4
					},
					"indices":5,
					"material":1
				}
			]
		}
	],
	"accessors":[
		{
			"bufferView":0,
			"componentType":5126,
			"count":240,
			"max":[
				-4.31557035446167,
				5.954484462738037,
				2.886148452758789
			],
			"min":[
				-5.792765140533447,
				3.0435597896575928,
				1.4852943420410156
			],
			"type":"VEC3"
		},
		{
			"bufferView":1,
			"componentType":5126,
			"count":240,
			"type":"VEC3"
		},
		{
			"bufferView":2,
			"componentType":5123,
			"count":240,
			"type":"SCALAR"
		},
		{
			"bufferView":3,
			"componentType":5126,
			"count":40,
			"max":[
				-5.2048258781433105,
				3.242133855819702,
				2.28427791595459
			],
			"min":[
				-5.374727725982666,
				1.4188697338104248,
				2.1362204551696777
			],
			"type":"VEC3"
		},
		{
			"bufferView":4,
			"componentType":5126,
			"count":40,
			"type":"VEC3"
		},
		{
			"bufferView":5,
			"componentType":5123,
			"count":60,
			"type":"SCALAR"
		}
	],
	"bufferViews":[
		{
			"buffer":0,
			"byteLength":2880,
			"byteOffset":0,
			"target":34962
		},
		{
			"buffer":0,
			"byteLength":2880,
			"byteOffset":2880,
			"target":34962
		},
		{
			"buffer":0,
			"byteLength":480,
			"byteOffset":5760,
			"target":34963
		},
		{
			"buffer":0,
			"byteLength":480,
			"byteOffset":6240,
			"target":34962
		},
		{
			"buffer":0,
			"byteLength":480,
			"byteOffset":6720,
			"target":34962
		},
		{
			"buffer":0,
			"byteLength":120,
			"byteOffset":7200,
			"target":34963
		}
	],
	"buffers":[
		{
			"byteLength":7320,
			"uri":"nature.bin"
		}
	]
}
