<?xml version="1.0" encoding="utf-8"?><!-- Uploaded to: SVG Repo, www.svgrepo.com, Generator: SVG Repo Mixer Tools -->
<svg width="800px" height="800px" viewBox="0 0 24 24" fill="none" xmlns="http://www.w3.org/2000/svg">
<path fill-rule="evenodd" clip-rule="evenodd" d="M12.3125 4.5C10.5164 4.5 8.82873 5.76101 8.34633 7.45537L8.19127 8H7.625C6.39099 8 5.25 9.14903 5.25 10.75C5.25 12.351 6.39099 13.5 7.625 13.5L17 13.5C17.8888 13.5 18.75 12.6644 18.75 11.45C18.75 10.2356 17.8888 9.4 17 9.4H16.25V8.65C16.25 6.32633 14.4561 4.5 12.3125 4.5ZM7.07517 6.54154C7.90775 4.45368 10.0401 3 12.3125 3C13.9642 3 15.429 3.75903 16.4209 4.94897C16.8794 4.66462 17.4206 4.5 18.0001 4.5C19.6569 4.5 21.0001 5.84315 21.0001 7.5C21.0001 8.44102 20.567 9.2799 19.8902 9.8296C20.1217 10.3227 20.25 10.8767 20.25 11.45C20.25 13.0243 19.2825 14.4533 17.8668 14.8748L16.3355 21H7.66436L6.07718 14.6513C4.67921 13.9851 3.75 12.446 3.75 10.75C3.75 8.67647 5.13885 6.83765 7.07517 6.54154ZM18.9827 8.63351C19.3 8.35814 19.5001 7.95198 19.5001 7.5C19.5001 6.67157 18.8285 6 18.0001 6C17.7146 6 17.448 6.07938 17.2207 6.21791C17.4723 6.76512 17.6415 7.35981 17.7124 7.98371C18.1885 8.09814 18.6181 8.32498 18.9827 8.63351ZM11.25 15H12.75V19.5H11.25V15ZM14.25 19.5V15H16.2894L15.1644 19.5H14.25ZM9.75 15H7.71053L8.83553 19.5H9.75V15Z" fill="#080341"/>
</svg>