{
	"asset":{
		"generator":"Khronos glTF Blender I/O v5.1.20",
		"version":"2.0"
	},
	"scene":0,
	"scenes":[
		{
			"name":"Scene",
			"nodes":[
				0
			]
		}
	],
	"nodes":[
		{
			"mesh":0,
			"name":"Mesh_0"
		}
	],
	"materials":[
		{
			"doubleSided":true,
			"name":"Mesh_0_baked.002",
			"pbrMetallicRoughness":{
				"baseColorFactor":[
					0.800000011920929,
					0.800000011920929,
					0.800000011920929,
					1
				],
				"metallicFactor":0
			}
		}
	],
	"meshes":[
		{
			"name":"Mesh_0",
			"primitives":[
				{
					"attributes":{
						"POSITION":0,
						"NORMAL":1,
						"TEXCOORD_0":2,
						"TANGENT":3
					},
					"indices":4,
					"material":0
				}
			]
		}
	],
	"accessors":[
		{
			"bufferView":0,
			"componentType":5126,
			"count":1421475,
			"max":[
				0.9857199192047119,
				1.7231953144073486,
				0.9873710870742798
			],
			"min":[
				-0.9788894057273865,
				-0.01377880573272705,
				-0.9796378016471863
			],
			"type":"VEC3"
		},
		{
			"bufferView":1,
			"componentType":5126,
			"count":1421475,
			"type":"VEC3"
		},
		{
			"bufferView":2,
			"componentType":5126,
			"count":1421475,
			"type":"VEC2"
		},
		{
			"bufferView":3,
			"componentType":5126,
			"count":1421475,
			"type":"VEC4"
		},
		{
			"bufferView":4,
			"componentType":5125,
			"count":1473648,
			"type":"SCALAR"
		}
	],
	"bufferViews":[
		{
			"buffer":0,
			"byteLength":17057700,
			"byteOffset":0,
			"target":34962
		},
		{
			"buffer":0,
			"byteLength":17057700,
			"byteOffset":17057700,
			"target":34962
		},
		{
			"buffer":0,
			"byteLength":11371800,
			"byteOffset":34115400,
			"target":34962
		},
		{
			"buffer":0,
			"byteLength":22743600,
			"byteOffset":45487200,
			"target":34962
		},
		{
			"buffer":0,
			"byteLength":5894592,
			"byteOffset":68230800,
			"target":34963
		}
	],
	"buffers":[
		{
			"byteLength":74125392,
			"uri":"Mesh_0.bin"
		}
	]
}
