{
	"asset":{
		"generator":"Khronos glTF Blender I/O v5.0.21",
		"version":"2.0"
	},
	"scene":0,
	"scenes":[
		{
			"name":"Scene",
			"nodes":[
				0,
				1
			]
		}
	],
	"nodes":[
		{
			"mesh":0,
			"name":"Icosphere.007",
			"translation":[
				3.041548252105713,
				1.824173927307129,
				1.9104050397872925
			]
		},
		{
			"mesh":1,
			"name":"Cylinder.003",
			"translation":[
				3.041548252105713,
				1.824173927307129,
				1.9104050397872925
			]
		}
	],
	"materials":[
		{
			"doubleSided":true,
			"name":"Leaf.002"
		},
		{
			"doubleSided":true,
			"name":"TreeBody.002"
		}
	],
	"meshes":[
		{
			"name":"Icosphere.016",
			"primitives":[
				{
					"attributes":{
						"POSITION":0,
						"NORMAL":1
					},
					"indices":2,
					"material":0
				}
			]
		},
		{
			"name":"Cylinder.003",
			"primitives":[
				{
					"attributes":{
						"POSITION":3,
						"NORMAL":4
					},
					"indices":5,
					"material":1
				}
			]
		}
	],
	"accessors":[
		{
			"bufferView":0,
			"componentType":5126,
			"count":951,
			"max":[
				-1.4255619049072266,
				2.4675133228302,
				-0.9419036507606506
			],
			"min":[
				-4.901558876037598,
				0.22535675764083862,
				-2.804290533065796
			],
			"type":"VEC3"
		},
		{
			"bufferView":1,
			"componentType":5126,
			"count":951,
			"type":"VEC3"
		},
		{
			"bufferView":2,
			"componentType":5123,
			"count":951,
			"type":"SCALAR"
		},
		{
			"bufferView":3,
			"componentType":5126,
			"count":204,
			"max":[
				-2.532474994659424,
				0.5428855419158936,
				-1.6943755149841309
			],
			"min":[
				-3.6470448970794678,
				-2.000725746154785,
				-2.474442958831787
			],
			"type":"VEC3"
		},
		{
			"bufferView":4,
			"componentType":5126,
			"count":204,
			"type":"VEC3"
		},
		{
			"bufferView":5,
			"componentType":5123,
			"count":318,
			"type":"SCALAR"
		}
	],
	"bufferViews":[
		{
			"buffer":0,
			"byteLength":11412,
			"byteOffset":0,
			"target":34962
		},
		{
			"buffer":0,
			"byteLength":11412,
			"byteOffset":11412,
			"target":34962
		},
		{
			"buffer":0,
			"byteLength":1902,
			"byteOffset":22824,
			"target":34963
		},
		{
			"buffer":0,
			"byteLength":2448,
			"byteOffset":24728,
			"target":34962
		},
		{
			"buffer":0,
			"byteLength":2448,
			"byteOffset":27176,
			"target":34962
		},
		{
			"buffer":0,
			"byteLength":636,
			"byteOffset":29624,
			"target":34963
		}
	],
	"buffers":[
		{
			"byteLength":30260,
			"uri":"nature.bin"
		}
	]
}
