<?xml version="1.0" encoding="UTF-8"?><svg id="Layer_2" xmlns="http://www.w3.org/2000/svg" xmlns:xlink="http://www.w3.org/1999/xlink" viewBox="0 0 234.375 141.809"><defs><style>.cls-1{fill:url(#linear-gradient-2);}.cls-2{fill:url(#linear-gradient-6);}.cls-3{fill:url(#linear-gradient-11);}.cls-4{fill:url(#linear-gradient-10);}.cls-5{fill:url(#linear-gradient-5);}.cls-6{fill:url(#linear-gradient-7);}.cls-7{fill:url(#linear-gradient-9);}.cls-8{fill:url(#linear-gradient-3);}.cls-9{fill:url(#linear-gradient);}.cls-10{fill:url(#linear-gradient-4);}.cls-11{fill:url(#linear-gradient-8);}.cls-12{fill:url(#linear-gradient-12);}.cls-13{fill:url(#linear-gradient-13);}</style><linearGradient id="linear-gradient" x1="17.015" y1="142.052" x2="141.083" y2="81.725" gradientUnits="userSpaceOnUse"><stop offset="0" stop-color="#42bad3"/><stop offset=".376" stop-color="#42bad3"/><stop offset=".584" stop-color="#2d849f"/><stop offset=".867" stop-color="#14405d"/><stop offset="1" stop-color="#0a2644"/></linearGradient><linearGradient id="linear-gradient-2" x1="95.411" y1="8.461" x2="176.225" y2="94.967" gradientUnits="userSpaceOnUse"><stop offset="0" stop-color="#42bad3"/><stop offset=".376" stop-color="#42bad3"/><stop offset=".468" stop-color="#40b5ce"/><stop offset=".572" stop-color="#3ba7c1"/><stop offset=".682" stop-color="#3291ab"/><stop offset=".797" stop-color="#26718c"/><stop offset=".913" stop-color="#174965"/><stop offset="1" stop-color="#0a2644"/></linearGradient><linearGradient id="linear-gradient-3" x1="-2.384" y1="130.92" x2="100.311" y2="56.302" xlink:href="#linear-gradient-2"/><linearGradient id="linear-gradient-4" x1="-115.631" y1="148.626" x2="86.976" y2="97.026" xlink:href="#linear-gradient-2"/><linearGradient id="linear-gradient-5" x1="172" y1="141.767" x2="171.918" y2="141.796" gradientUnits="userSpaceOnUse"><stop offset="0" stop-color="#00a59b" stop-opacity="0"/><stop offset=".201" stop-color="#049491" stop-opacity=".193"/><stop offset=".613" stop-color="#106979" stop-opacity=".689"/><stop offset=".849" stop-color="#184e6b"/></linearGradient><linearGradient id="linear-gradient-6" x1="172.034" y1="141.66" x2="171.951" y2="141.76" gradientUnits="userSpaceOnUse"><stop offset="0" stop-color="#42bad3" stop-opacity="0"/><stop offset=".376" stop-color="#42bad3" stop-opacity="0"/><stop offset=".601" stop-color="#308ba5" stop-opacity=".315"/><stop offset="1" stop-color="#0a2644"/></linearGradient><linearGradient id="linear-gradient-7" x1="174.632" y1="140.693" x2="172.88" y2="142.485" xlink:href="#linear-gradient-2"/><linearGradient id="linear-gradient-8" x1="150.408" y1="58.345" x2="200.491" y2="147.887" gradientUnits="userSpaceOnUse"><stop offset="0" stop-color="#42bad3"/><stop offset=".134" stop-color="#3ab8c3"/><stop offset=".698" stop-color="#1cb483"/><stop offset=".77" stop-color="#1ab07f"/><stop offset=".838" stop-color="#16a474"/><stop offset=".904" stop-color="#0f9161"/><stop offset=".969" stop-color="#057747"/><stop offset="1" stop-color="#006838"/></linearGradient><linearGradient id="linear-gradient-9" x1="123.65" y1="135.511" x2="191.755" y2="94.344" xlink:href="#linear-gradient-2"/><linearGradient id="linear-gradient-10" x1="80.12" y1="45.778" x2="43.696" y2="49.446" gradientUnits="userSpaceOnUse"><stop offset="0" stop-color="#0f3654" stop-opacity="0"/><stop offset=".572" stop-color="#0b2c4a" stop-opacity=".609"/><stop offset="1" stop-color="#0a2644"/></linearGradient><linearGradient id="linear-gradient-11" x1="89.965" y1="62.389" x2="89.965" y2="139.444" xlink:href="#linear-gradient-8"/><linearGradient id="linear-gradient-12" x1="47.246" y1="62.389" x2="47.246" y2="139.444" xlink:href="#linear-gradient-8"/><linearGradient id="linear-gradient-13" x1="41.967" y1="62.389" x2="41.967" y2="139.444" xlink:href="#linear-gradient-8"/></defs><g id="Layer_1-2"><path class="cls-9" d="m223.81,129.909c-6.538,6.857-15.574,11.295-25.649,11.843h-26.379s0,.011-.011.011h-4.94c-.331,0-.673,0-1.004-.011-14.342-.194-28.136-4.644-39.751-12.562l-.011-.011-.011-.011c-.434-.297-.867-.593-1.301-.901-.867-.616-1.7-1.255-2.533-1.905-1.255-.97-2.476-1.997-3.663-3.058-.787-.707-1.563-1.438-2.339-2.191-1.826-1.791-3.571-3.674-5.214-5.671l-16.909-20.526-38.929-47.236-.24-.308-4.199-5.089-.011-.011c.08-.274.183-.559.297-.844.023-.057.046-.125.069-.183.548-1.358,1.415-2.807,2.544-4.279.011-.011.023-.034.034-.046,8.683-11.227,32.928-23.241,52.758-.536.491.548.958,1.118,1.438,1.711,17.183,21.37,35.21,41.736,50.088,58.029.103.114.217.228.308.342,9.869,10.805,18.324,19.796,24.211,26.082,2.042,2.168,4.313,4.096,6.777,5.716,5.716,3.788,12.391,5.979,19.339,6.013,5.146.034,10.554-1.038,15.232-4.37Z"/><path class="cls-1" d="m234.375,103.576c0,10.234-4.016,19.533-10.565,26.39-6.503,6.823-15.505,11.238-25.534,11.786h-.114c10.075-.548,19.111-4.986,25.649-11.843-4.678,3.332-10.086,4.404-15.232,4.37-6.949-.034-13.623-2.225-19.339-6.013-2.465-1.62-4.735-3.548-6.777-5.716-5.887-6.287-14.342-15.277-24.211-26.082-.091-.114-.205-.228-.308-.342-14.878-16.293-32.905-36.659-50.088-58.029-.479-.593-.947-1.164-1.438-1.711-19.83-22.705-44.075-10.691-52.758.536,6.903-10.782,16.327-19.796,27.429-26.219C92.851,3.891,106.508,0,121.078,0c2.773,0,5.522.148,8.215.434,16.293,1.654,31.137,8.192,43.048,18.13,14,11.683,23.949,28.056,27.406,46.722,1.027.16,2.042.365,3.035.605.091.011.194.034.285.057.011,0,.023.011.034.011.114.034.251.057.365.091.023,0,.034.011.057.011.046.011.08.011.125.034.582.148,1.164.32,1.746.502.057.011.114.034.182.057.593.171,1.175.377,1.757.582.536.194,1.061.399,1.586.616.103.034.205.08.297.125.536.217,1.05.445,1.563.685.616.285,1.209.582,1.803.901.456.24.901.479,1.346.753,1.301.742,2.556,1.563,3.754,2.442.479.354.958.719,1.426,1.095.125.091.24.183.342.274.434.354.867.707,1.278,1.084.046.034.091.08.137.126.479.422.936.856,1.392,1.301.433.422.856.844,1.266,1.289.16.171.308.331.457.502.856.924,1.654,1.905,2.419,2.909.32.422.628.856.924,1.289.125.183.251.354.365.536.285.411.548.833.81,1.255,1.323,2.134,2.464,4.393,3.377,6.755.137.331.262.673.388,1.015.068.205.148.411.217.605.091.274.182.548.262.81.011.023.011.046.023.057.182.593.365,1.198.525,1.803.365,1.369.662,2.773.89,4.187v.023c.125,1.278.194,2.579.194,3.902Z"/><path class="cls-8" d="m94.095,94.368v.605c-.331,25.923-21.45,46.836-47.441,46.836-21.621,0-39.853-14.456-45.581-34.217-.011-.023-.011-.034-.011-.057-.548-2.43-.89-4.94-1.004-7.519-.034-.776-.057-1.552-.057-2.328,0-.867.023-1.734.069-2.601.217-4.347.97-8.546,2.191-12.539,1.403-4.541,3.411-8.82,5.944-12.722,2.396-3.731,5.26-7.12,8.523-10.097,2.967-2.727,6.252-5.1,9.801-7.074,3.902-2.156,8.101-3.834,12.539-4.929.776-.194,1.552-.365,2.339-.525,1.723-.183,3.48-.285,5.248-.285,2.887,0,5.716.262,8.466.753,22.157,3.993,38.975,23.378,38.975,46.699Z"/><path class="cls-10" d="m126.076,129.247l-.011-.011-.011-.011c-.434-.297-.867-.593-1.301-.901-.867-.616-1.7-1.255-2.533-1.905-1.255-.97-2.476-1.997-3.663-3.058-.787-.707-1.563-1.438-2.339-2.191-1.826-1.791-3.571-3.674-5.214-5.671l-16.909-20.526-21.758-26.408c8.643,3.902,12.15-3.407,6.321-9.209-9.431-9.388-23.789-11.995-23.789-11.995l-4.153-5.032c0-.011.011-.034.011-.046.103-.319.217-.639.354-.981-.023.046-.046.08-.069.125-.091.148-.182.308-.262.456-.787,1.449-1.54,2.921-2.236,4.427-1.734.08-3.434.262-5.111.536-.673.103-1.335.228-1.997.354-.787.16-1.563.331-2.339.525-4.438,1.095-8.637,2.773-12.539,4.929-3.548,1.974-6.834,4.347-9.801,7.074-3.263,2.978-6.127,6.366-8.523,10.097-2.533,3.902-4.541,8.181-5.944,12.722-1.221,3.993-1.974,8.192-2.191,12.539-.046.867-.069,1.734-.069,2.601,0,.776.023,1.552.057,2.328.114,2.579.456,5.089,1.004,7.519,0,.023,0,.034.011.057,5.728,19.761,23.96,34.217,45.581,34.217h119.173c-14.342-.194-28.136-4.644-39.751-12.562Z"/><path class="cls-5" d="m172.002,141.773c-.011.011-.011.023-.023.023s-.011.011-.023.011c-.011-.011-.023-.023-.046-.034h.091Z"/><path class="cls-2" d="m172.002,141.761v.011c-.011.011-.011.023-.023.023s-.011.011-.023.011c-.011-.011-.023-.023-.046-.034,0,0-.011,0-.023-.011h.114Z"/><path class="cls-6" d="m172.07,141.761h3.058l-3.092.011c.011,0,.023-.011.034-.011Z"/><path class="cls-11" d="m234.375,103.576c0,10.234-4.016,19.533-10.565,26.39-5.781,6.065-13.536,10.227-22.231,11.462-1.792.254-3.606.324-5.416.324h-24.152s0,.011-.011.011h-.114c-.011,0-.011-.011-.023-.011h-5.785c-14.273-.194-28.011-4.621-39.568-12.505.753.354,25.067,12.048,30.441-26.425.319-2.305.753-4.461,1.278-6.492.719-2.784,1.632-5.328,2.693-7.633v-.011c2.841-6.218,6.732-10.793,10.964-14.148,8.386-6.652,18.096-8.546,23.561-9.071.559-.057,1.13-.091,1.689-.103h.046c1.882-.057,3.765.103,5.602.525.091.011.194.034.285.057.011,0,.023.011.034.011.114.034.251.057.365.091.023,0,.034.011.057.011.046.011.08.011.125.034.582.148,1.164.32,1.746.502.057.011.114.034.182.057.593.171,1.175.377,1.757.582.536.194,1.061.399,1.586.616.103.034.205.08.297.125.536.217,1.05.445,1.563.685.616.285,1.209.582,1.803.901.456.24.901.479,1.346.753,1.301.742,2.556,1.563,3.754,2.442.479.354.958.719,1.426,1.095.125.091.24.183.342.274.434.354.867.707,1.278,1.084.046.034.091.08.137.126.479.422.936.856,1.392,1.301.433.422.856.844,1.266,1.289.16.171.308.331.457.502.856.924,1.654,1.905,2.419,2.909.32.422.628.856.924,1.289.125.183.251.354.365.536.285.411.548.833.81,1.255,1.323,2.134,2.464,4.393,3.377,6.755.137.331.262.673.388,1.015.068.205.148.411.217.605.091.274.182.548.262.81.011.023.011.046.023.057.182.605.365,1.198.525,1.803.365,1.369.662,2.773.89,4.187v.023c.125,1.278.194,2.579.194,3.902Z"/><path class="cls-7" d="m200.078,103.553c-1.061,13.55-14.214,25.155-23.843,31.908-6.772,4.75-15.218,6.52-23.328,4.893-9.473-1.9-18.45-5.686-26.397-11.107.753.354,25.067,12.048,30.441-26.425.319-2.305.753-4.461,1.278-6.492,2.681-10.291,7.85-17.183,13.657-21.792,20.035-8.603,29.585,11.25,28.193,29.014Z"/><path class="cls-4" d="m113.445,60.117c0,.65-26.961,7.256-27.645,7.428h-.011c-.125-.194-.262-.377-.388-.57-.194-.274-.399-.559-.593-.822-.399-.559-.81-1.095-1.244-1.609-.639-.799-1.301-1.563-1.985-2.293-.456-.502-.924-.993-1.403-1.46-.411-.411-.833-.81-1.244-1.187-5.91-5.397-12.585-8.626-18.153-10.542-2.145-.742-4.13-1.289-5.853-1.689-.023,0-.034,0-.057-.011-3.845-.879-6.355-1.05-6.355-1.05.696-1.506,1.449-2.978,2.236-4.427.08-.148.171-.308.262-.456.023-.057.046-.125.069-.183.548-1.358,1.415-2.807,2.544-4.279.011-.011.023-.034.034-.046,8.683-11.227,32.928-23.241,52.758-.536,3.868,10.93,6.948,23.333,7.028,23.732Z"/><path class="cls-3" d="m162.625,141.361h-.018c-10.591-.721-23.888-4.025-31.869-9.474l-.009-.009-.009-.009c-1.837-1.257-3.604-2.619-5.291-4.104-.773-.668-1.52-1.354-2.25-2.074-.598-.58-1.186-1.178-1.749-1.793-.782-.826-1.529-1.679-2.25-2.558l-46.239-56.118-.562-.677-8.411-10.213c-.202-.255-.431-.475-.677-.668-1.872-1.556-4.685-1.52-6.53.29-1.811,1.784-1.82,4.711-.211,6.688l6.829,8.402,11.311,13.895,7.462,9.167c1.6,1.969,1.591,4.904-.22,6.688-.756.738-1.67,1.186-2.619,1.336-1.67.281-3.436-.317-4.579-1.723l-20.083-24.679c-.272-.343-.589-.642-.932-.888-1.635-1.222-3.902-1.424-5.66-.255-1.942,1.292-2.628,3.674-1.89,5.704.176.501.448.984.8,1.424l9.774,12.243c1.599,1.978,1.591,4.904-.22,6.688-2.074,2.048-5.405,1.828-7.198-.378l-26.771-32.122c-1.599-1.969-4.473-2.558-6.592-1.143-2.426,1.617-2.891,4.922-1.09,7.128l40.297,54.991c6.741,9.264,17.516,14.73,28.968,14.686,0,0,8.112-.026,19.239-.062,24.24-.088,62.771-.22,62.771-.228-1.134-.018-2.312-.07-3.524-.158Zm-103.086-30.304c-2.584,0-4.684-2.101-4.684-4.685s2.101-4.685,4.684-4.685,4.685,2.101,4.685,4.685-2.101,4.685-4.685,4.685Zm33.09,1.635c-2.083,1.696-5.15,1.38-6.847-.703l-1.679-2.057c-1.696-2.083-1.38-5.15.703-6.847.905-.738,1.986-1.09,3.067-1.09,1.415,0,2.821.615,3.779,1.793l1.679,2.057c1.696,2.083,1.38,5.15-.703,6.847Z"/><path class="cls-12" d="m46.794,48.462c1.696,2.088,4.764,2.405,6.85.707h0c2.083-1.695,2.398-4.757.706-6.842l-6.653-8.195c-1.696-2.088-4.764-2.405-6.85-.707-2.083,1.695-2.398,4.757-.706,6.842l6.653,8.195Z"/><circle class="cls-13" cx="41.967" cy="66.706" r="4.682"/></g></svg>