<?xml version="1.0" standalone="no"?>
<!DOCTYPE svg PUBLIC "-//W3C//DTD SVG 20010904//EN"
 "http://www.w3.org/TR/2001/REC-SVG-20010904/DTD/svg10.dtd">
<svg version="1.0" xmlns="http://www.w3.org/2000/svg"
 width="936.000000pt" height="936.000000pt" viewBox="0 0 936.000000 936.000000"
 preserveAspectRatio="xMidYMid meet">
<metadata>
Created by potrace 1.14, written by Peter Selinger 2001-2017
</metadata>
<g transform="translate(0.000000,936.000000) scale(0.100000,-0.100000)"
fill="#000000" stroke="none">
<path d="M4628 7505 c-2 -2 -39 -6 -83 -9 -44 -3 -91 -8 -105 -11 -14 -3 -41
-7 -60 -9 -44 -5 -151 -23 -210 -36 -25 -6 -54 -12 -65 -15 -117 -25 -347 -99
-480 -156 -16 -7 -32 -13 -35 -14 -47 -16 -274 -128 -278 -137 -2 -5 -7 -8
-12 -8 -8 0 -130 -69 -140 -80 -3 -3 -16 -11 -30 -19 -33 -18 -227 -154 -262
-183 -15 -13 -46 -39 -69 -58 -130 -108 -289 -266 -396 -395 -42 -49 -83 -100
-93 -112 -10 -12 -27 -34 -37 -50 -9 -15 -22 -31 -28 -35 -5 -4 -7 -8 -3 -8 4
0 -6 -15 -23 -32 -16 -18 -29 -38 -29 -45 0 -7 -4 -13 -10 -13 -5 0 -10 -6
-10 -13 0 -7 -10 -23 -23 -37 -13 -14 -32 -40 -42 -57 -11 -18 -22 -33 -25
-33 -3 0 -13 12 -22 28 -9 15 -29 41 -45 58 -37 41 -97 115 -102 126 -7 20
-81 57 -125 63 -149 23 -265 -141 -196 -276 12 -22 29 -48 38 -58 9 -9 33 -37
52 -62 19 -24 38 -45 42 -47 4 -2 8 -8 8 -12 0 -5 10 -20 23 -33 28 -30 57
-66 57 -71 0 -5 -37 -13 -100 -21 -108 -15 -340 -83 -445 -130 -27 -13 -72
-33 -100 -45 -27 -12 -58 -29 -67 -38 -10 -8 -18 -12 -18 -9 0 8 -147 -84
-219 -137 -263 -193 -469 -431 -619 -716 -44 -84 -121 -264 -126 -294 -1 -6
-7 -24 -14 -41 -6 -16 -19 -59 -27 -95 -20 -83 -25 -105 -39 -190 -3 -19 -8
-51 -12 -70 -10 -62 -13 -413 -3 -475 5 -33 11 -75 14 -92 8 -54 24 -119 36
-149 7 -16 13 -31 14 -34 15 -62 141 -332 157 -338 4 -2 8 -8 8 -13 0 -13 74
-121 140 -204 51 -65 204 -224 261 -270 271 -224 578 -365 914 -421 17 -3 46
-8 65 -11 86 -16 6465 -8 6465 7 0 2 22 7 89 20 114 22 338 114 441 180 17 11
37 23 45 27 8 4 21 12 30 19 8 7 42 33 74 58 144 111 286 272 372 423 39 68
91 167 92 173 0 3 7 23 16 45 29 67 70 214 82 285 3 19 8 53 12 75 9 50 8 336
0 391 -4 23 -11 59 -17 80 -5 22 -12 50 -15 64 -3 14 -17 57 -31 95 -15 39
-30 79 -33 90 -3 10 -26 60 -50 109 -203 408 -563 713 -1002 850 -88 27 -106
31 -175 42 -22 3 -42 7 -44 9 -2 3 -8 24 -12 47 -16 76 -32 143 -44 191 -3 9
-7 25 -9 35 -2 9 -19 62 -37 117 -18 55 -34 102 -34 105 -1 3 -7 19 -14 35 -6
17 -17 44 -23 60 -37 97 -110 251 -176 370 -67 120 -161 269 -173 273 -5 2 -9
8 -9 13 0 11 -122 169 -203 264 -110 127 -307 313 -452 427 -53 42 -148 108
-155 108 -4 0 -10 3 -12 8 -5 11 -66 52 -78 52 -5 0 -10 3 -10 8 0 7 -10 13
-66 42 -16 8 -31 17 -34 21 -6 7 -29 19 -162 85 -202 101 -307 142 -548 218
-56 18 -243 61 -330 77 -67 12 -82 14 -185 25 -33 3 -87 9 -120 14 -57 7 -460
12 -467 5z"/>
</g>
</svg>
