{
	"asset":{
		"generator":"Khronos glTF Blender I/O v5.0.21",
		"version":"2.0"
	},
	"scene":0,
	"scenes":[
		{
			"name":"Scene",
			"nodes":[
				0,
				1
			]
		}
	],
	"nodes":[
		{
			"mesh":0,
			"name":"Cube.008",
			"translation":[
				4.262025356292725,
				-1.0866767168045044,
				-2.687527894973755
			]
		},
		{
			"mesh":1,
			"name":"Icosphere.013",
			"translation":[
				4.262025356292725,
				-1.0866767168045044,
				-2.687527894973755
			]
		}
	],
	"materials":[
		{
			"doubleSided":true,
			"name":"TreeBody"
		},
		{
			"doubleSided":true,
			"name":"DarkerLeaf"
		}
	],
	"meshes":[
		{
			"name":"Cube.009",
			"primitives":[
				{
					"attributes":{
						"POSITION":0,
						"NORMAL":1
					},
					"indices":2,
					"material":0
				}
			]
		},
		{
			"name":"Icosphere.012",
			"primitives":[
				{
					"attributes":{
						"POSITION":3,
						"NORMAL":4
					},
					"indices":5,
					"material":1
				}
			]
		}
	],
	"accessors":[
		{
			"bufferView":0,
			"componentType":5126,
			"count":40,
			"max":[
				-4.134759902954102,
				3.0814361572265625,
				2.7270636558532715
			],
			"min":[
				-4.273963928222656,
				1.0962193012237549,
				2.5997958183288574
			],
			"type":"VEC3"
		},
		{
			"bufferView":1,
			"componentType":5126,
			"count":40,
			"type":"VEC3"
		},
		{
			"bufferView":2,
			"componentType":5123,
			"count":60,
			"type":"SCALAR"
		},
		{
			"bufferView":3,
			"componentType":5126,
			"count":240,
			"max":[
				-3.648491621017456,
				4.948037147521973,
				3.1705729961395264
			],
			"min":[
				-4.883654594421387,
				2.691215753555298,
				2.1414759159088135
			],
			"type":"VEC3"
		},
		{
			"bufferView":4,
			"componentType":5126,
			"count":240,
			"type":"VEC3"
		},
		{
			"bufferView":5,
			"componentType":5123,
			"count":240,
			"type":"SCALAR"
		}
	],
	"bufferViews":[
		{
			"buffer":0,
			"byteLength":480,
			"byteOffset":0,
			"target":34962
		},
		{
			"buffer":0,
			"byteLength":480,
			"byteOffset":480,
			"target":34962
		},
		{
			"buffer":0,
			"byteLength":120,
			"byteOffset":960,
			"target":34963
		},
		{
			"buffer":0,
			"byteLength":2880,
			"byteOffset":1080,
			"target":34962
		},
		{
			"buffer":0,
			"byteLength":2880,
			"byteOffset":3960,
			"target":34962
		},
		{
			"buffer":0,
			"byteLength":480,
			"byteOffset":6840,
			"target":34963
		}
	],
	"buffers":[
		{
			"byteLength":7320,
			"uri":"nature.bin"
		}
	]
}
