{
	"asset":{
		"generator":"Khronos glTF Blender I/O v5.0.21",
		"version":"2.0"
	},
	"scene":0,
	"scenes":[
		{
			"name":"Scene",
			"nodes":[
				0,
				1
			]
		}
	],
	"nodes":[
		{
			"mesh":0,
			"name":"Icosphere.007",
			"translation":[
				-3.8431479930877686,
				2.701948404312134,
				0
			]
		},
		{
			"mesh":1,
			"name":"Cylinder",
			"translation":[
				-3.8431479930877686,
				2.701948404312134,
				0
			]
		}
	],
	"materials":[
		{
			"doubleSided":true,
			"name":"Leaf"
		},
		{
			"doubleSided":true,
			"name":"TreeBody"
		}
	],
	"meshes":[
		{
			"name":"Icosphere.007",
			"primitives":[
				{
					"attributes":{
						"POSITION":0,
						"NORMAL":1
					},
					"indices":2,
					"material":0
				}
			]
		},
		{
			"name":"Cylinder",
			"primitives":[
				{
					"attributes":{
						"POSITION":3,
						"NORMAL":4
					},
					"indices":5,
					"material":1
				}
			]
		}
	],
	"accessors":[
		{
			"bufferView":0,
			"componentType":5126,
			"count":1446,
			"max":[
				4.992797374725342,
				3.4965133666992188,
				1.597627878189087
			],
			"min":[
				1.2912864685058594,
				-0.7197274565696716,
				-1.1967967748641968
			],
			"type":"VEC3"
		},
		{
			"bufferView":1,
			"componentType":5126,
			"count":1446,
			"type":"VEC3"
		},
		{
			"bufferView":2,
			"componentType":5123,
			"count":1446,
			"type":"SCALAR"
		},
		{
			"bufferView":3,
			"componentType":5126,
			"count":338,
			"max":[
				4.848380088806152,
				0.1933884620666504,
				0.45840033888816833
			],
			"min":[
				3.2466273307800293,
				-2.632547378540039,
				-0.6061291098594666
			],
			"type":"VEC3"
		},
		{
			"bufferView":4,
			"componentType":5126,
			"count":338,
			"type":"VEC3"
		},
		{
			"bufferView":5,
			"componentType":5123,
			"count":540,
			"type":"SCALAR"
		}
	],
	"bufferViews":[
		{
			"buffer":0,
			"byteLength":17352,
			"byteOffset":0,
			"target":34962
		},
		{
			"buffer":0,
			"byteLength":17352,
			"byteOffset":17352,
			"target":34962
		},
		{
			"buffer":0,
			"byteLength":2892,
			"byteOffset":34704,
			"target":34963
		},
		{
			"buffer":0,
			"byteLength":4056,
			"byteOffset":37596,
			"target":34962
		},
		{
			"buffer":0,
			"byteLength":4056,
			"byteOffset":41652,
			"target":34962
		},
		{
			"buffer":0,
			"byteLength":1080,
			"byteOffset":45708,
			"target":34963
		}
	],
	"buffers":[
		{
			"byteLength":46788,
			"uri":"nature.bin"
		}
	]
}
