{
	"asset":{
		"generator":"Khronos glTF Blender I/O v5.0.21",
		"version":"2.0"
	},
	"scene":0,
	"scenes":[
		{
			"name":"Scene",
			"nodes":[
				0,
				1,
				2,
				3,
				4
			]
		}
	],
	"nodes":[
		{
			"mesh":0,
			"name":"Cube",
			"rotation":[
				0,
				1,
				0,
				0
			],
			"scale":[
				-1,
				-0.03802936524152756,
				-1
			],
			"translation":[
				-0.09061694145202637,
				0.9771639108657837,
				-0.16461047530174255
			]
		},
		{
			"mesh":1,
			"name":"Cylinder",
			"scale":[
				1,
				0.7600695490837097,
				1
			],
			"translation":[
				0.4648723900318146,
				0,
				0.38471052050590515
			]
		},
		{
			"mesh":2,
			"name":"Cylinder.001",
			"scale":[
				1,
				0.7600695490837097,
				1
			],
			"translation":[
				-0.6398872137069702,
				0,
				0.3801201283931732
			]
		},
		{
			"mesh":3,
			"name":"Cylinder.002",
			"scale":[
				1,
				0.7600695490837097,
				1
			],
			"translation":[
				-0.6375412344932556,
				0,
				-0.7092534303665161
			]
		},
		{
			"mesh":4,
			"name":"Cylinder.003",
			"scale":[
				1,
				0.7600695490837097,
				1
			],
			"translation":[
				0.4507966935634613,
				0,
				-0.710634708404541
			]
		}
	],
	"materials":[
		{
			"doubleSided":true,
			"name":"Material",
			"pbrMetallicRoughness":{
				"baseColorFactor":[
					0.800000011920929,
					0.800000011920929,
					0.800000011920929,
					1
				],
				"metallicFactor":0,
				"roughnessFactor":0.5
			}
		}
	],
	"meshes":[
		{
			"name":"Cube",
			"primitives":[
				{
					"attributes":{
						"POSITION":0,
						"NORMAL":1,
						"TEXCOORD_0":2
					},
					"indices":3,
					"material":0
				}
			]
		},
		{
			"name":"Cylinder",
			"primitives":[
				{
					"attributes":{
						"POSITION":4,
						"NORMAL":5,
						"TEXCOORD_0":6
					},
					"indices":7
				}
			]
		},
		{
			"name":"Cylinder.001",
			"primitives":[
				{
					"attributes":{
						"POSITION":8,
						"NORMAL":9,
						"TEXCOORD_0":10
					},
					"indices":7
				}
			]
		},
		{
			"name":"Cylinder.002",
			"primitives":[
				{
					"attributes":{
						"POSITION":11,
						"NORMAL":12,
						"TEXCOORD_0":13
					},
					"indices":7
				}
			]
		},
		{
			"name":"Cylinder.003",
			"primitives":[
				{
					"attributes":{
						"POSITION":14,
						"NORMAL":15,
						"TEXCOORD_0":16
					},
					"indices":7
				}
			]
		}
	],
	"accessors":[
		{
			"bufferView":0,
			"componentType":5126,
			"count":96,
			"max":[
				1,
				1,
				1
			],
			"min":[
				-1,
				-1,
				-1
			],
			"type":"VEC3"
		},
		{
			"bufferView":1,
			"componentType":5126,
			"count":96,
			"type":"VEC3"
		},
		{
			"bufferView":2,
			"componentType":5126,
			"count":96,
			"type":"VEC2"
		},
		{
			"bufferView":3,
			"componentType":5123,
			"count":132,
			"type":"SCALAR"
		},
		{
			"bufferView":4,
			"componentType":5126,
			"count":994,
			"max":[
				0.07434403151273727,
				1.2999999523162842,
				0.07436227798461914
			],
			"min":[
				-0.0743439719080925,
				-1.043081283569336e-07,
				-0.07428932189941406
			],
			"type":"VEC3"
		},
		{
			"bufferView":5,
			"componentType":5126,
			"count":994,
			"type":"VEC3"
		},
		{
			"bufferView":6,
			"componentType":5126,
			"count":994,
			"type":"VEC2"
		},
		{
			"bufferView":7,
			"componentType":5123,
			"count":1692,
			"type":"SCALAR"
		},
		{
			"bufferView":8,
			"componentType":5126,
			"count":994,
			"max":[
				0.07434412091970444,
				1.2999999523162842,
				0.07436218112707138
			],
			"min":[
				-0.07434388250112534,
				-1.1920928955078125e-07,
				-0.07428944110870361
			],
			"type":"VEC3"
		},
		{
			"bufferView":9,
			"componentType":5126,
			"count":994,
			"type":"VEC3"
		},
		{
			"bufferView":10,
			"componentType":5126,
			"count":994,
			"type":"VEC2"
		},
		{
			"bufferView":11,
			"componentType":5126,
			"count":994,
			"max":[
				0.07434412091970444,
				1.2999999523162842,
				0.07436221092939377
			],
			"min":[
				-0.07434388250112534,
				-1.1920928955078125e-07,
				-0.07428941130638123
			],
			"type":"VEC3"
		},
		{
			"bufferView":12,
			"componentType":5126,
			"count":994,
			"type":"VEC3"
		},
		{
			"bufferView":13,
			"componentType":5126,
			"count":994,
			"type":"VEC2"
		},
		{
			"bufferView":14,
			"componentType":5126,
			"count":994,
			"max":[
				0.07434403151273727,
				1.2999999523162842,
				0.07436221092939377
			],
			"min":[
				-0.0743439719080925,
				-5.960464477539063e-08,
				-0.07428941130638123
			],
			"type":"VEC3"
		},
		{
			"bufferView":15,
			"componentType":5126,
			"count":994,
			"type":"VEC3"
		},
		{
			"bufferView":16,
			"componentType":5126,
			"count":994,
			"type":"VEC2"
		}
	],
	"bufferViews":[
		{
			"buffer":0,
			"byteLength":1152,
			"byteOffset":0,
			"target":34962
		},
		{
			"buffer":0,
			"byteLength":1152,
			"byteOffset":1152,
			"target":34962
		},
		{
			"buffer":0,
			"byteLength":768,
			"byteOffset":2304,
			"target":34962
		},
		{
			"buffer":0,
			"byteLength":264,
			"byteOffset":3072,
			"target":34963
		},
		{
			"buffer":0,
			"byteLength":11928,
			"byteOffset":3336,
			"target":34962
		},
		{
			"buffer":0,
			"byteLength":11928,
			"byteOffset":15264,
			"target":34962
		},
		{
			"buffer":0,
			"byteLength":7952,
			"byteOffset":27192,
			"target":34962
		},
		{
			"buffer":0,
			"byteLength":3384,
			"byteOffset":35144,
			"target":34963
		},
		{
			"buffer":0,
			"byteLength":11928,
			"byteOffset":38528,
			"target":34962
		},
		{
			"buffer":0,
			"byteLength":11928,
			"byteOffset":50456,
			"target":34962
		},
		{
			"buffer":0,
			"byteLength":7952,
			"byteOffset":62384,
			"target":34962
		},
		{
			"buffer":0,
			"byteLength":11928,
			"byteOffset":70336,
			"target":34962
		},
		{
			"buffer":0,
			"byteLength":11928,
			"byteOffset":82264,
			"target":34962
		},
		{
			"buffer":0,
			"byteLength":7952,
			"byteOffset":94192,
			"target":34962
		},
		{
			"buffer":0,
			"byteLength":11928,
			"byteOffset":102144,
			"target":34962
		},
		{
			"buffer":0,
			"byteLength":11928,
			"byteOffset":114072,
			"target":34962
		},
		{
			"buffer":0,
			"byteLength":7952,
			"byteOffset":126000,
			"target":34962
		}
	],
	"buffers":[
		{
			"byteLength":133952,
			"uri":"table.bin"
		}
	]
}
